<svg xmlns="http://www.w3.org/2000/svg" version="1.1"  width="512" height="512" x="0" y="0" viewBox="0 0 512 512" style="enable-background:new 0 0 512 512" xml:space="preserve" class=""><g><path d="M511.999 255.999c0 17.606-1.776 34.805-5.172 51.419a253.305 253.305 0 0 1-11.922 40.751v.01c-10.574 27.418-25.757 52.537-44.565 74.459a258.138 258.138 0 0 1-19.592 20.428 257.338 257.338 0 0 1-15.13 13.082c-20.219 16.144-42.945 29.299-67.49 38.766-28.588 11.034-59.653 17.084-92.128 17.084-60.363 0-115.847-20.898-159.618-55.85a258.498 258.498 0 0 1-34.722-33.51C23.219 377.865.001 319.633.001 255.999c0-7.92.355-15.757 1.066-23.5 2.57-28.212 9.707-55.108 20.689-79.934A256.107 256.107 0 0 1 61.66 89.359a257.42 257.42 0 0 1 41.691-38.88C145.973 18.766 198.792 0 256 0c32.465 0 63.519 6.039 92.107 17.074C387.96 32.444 423.005 57.5 450.34 89.359a256.213 256.213 0 0 1 30.856 44.795 252.873 252.873 0 0 1 12.518 26.645c11.796 29.434 18.285 61.565 18.285 95.2z" style="" fill="#ff525d" data-original="#ff525d"></path><path d="M124.776 219.179c0 7.356-5.956 13.322-13.322 13.322H1.061c2.57-28.212 9.707-55.108 20.689-79.934h68.984a13.29 13.29 0 0 1 9.425 3.908 13.282 13.282 0 0 1 3.897 9.414c0 7.356-5.966 13.322-13.322 13.322H47.799c-7.356 0-13.322 5.966-13.322 13.322s5.966 13.322 13.322 13.322h63.655c3.688 0 7.011 1.494 9.425 3.908a13.249 13.249 0 0 1 3.897 9.416zM144.771 273.641c0-7.358-5.965-13.323-13.323-13.323H19.176c-7.358 0-13.322 5.965-13.322 13.323 0 7.358 5.965 13.323 13.322 13.323h36.316c7.358 0 13.322 5.965 13.322 13.322 0 7.358-5.965 13.322-13.322 13.322H51.79c-7.358 0-13.322 5.965-13.322 13.323 0 7.358 5.965 13.323 13.322 13.323h107.604c7.358 0 13.323-5.965 13.323-13.323 0-7.358 5.965-13.323 13.323-13.323h3.702c7.358 0 13.323-5.965 13.323-13.322 0-7.358-5.965-13.322-13.323-13.322h-31.648c-7.358-.001-13.323-5.965-13.323-13.323z" style="" fill="#ffdc8d" data-original="#ffdc8d"></path><path d="M450.333 24.871v397.77c-46.947 54.7-116.6 89.359-194.34 89.359S108.6 477.341 61.653 422.641V24.871c0-13.73 11.128-24.868 24.868-24.868h338.943c13.731-.001 24.869 11.138 24.869 24.868z" style="" fill="#5c5e70" data-original="#5c5e70"></path><path d="M430.745 85.463v357.604a260.64 260.64 0 0 1-20.135 16.98c-42.956 32.601-96.527 51.952-154.613 51.952s-111.657-19.351-154.613-51.952a260.416 260.416 0 0 1-20.135-16.98V85.463c0-8.192 6.635-14.827 14.827-14.827h319.842c.899 0 1.776.084 2.623.24 6.938 1.233 12.204 7.294 12.204 14.587z" style="" fill="#ffd15c" data-original="#ffd15c"></path><path d="M321.819 45.556h-131.65c-6.059 0-10.97-4.912-10.97-10.97 0-6.059 4.912-10.97 10.97-10.97h131.65c6.059 0 10.97 4.912 10.97 10.97 0 6.058-4.912 10.97-10.97 10.97z" style="" fill="#494b5b" data-original="#494b5b"></path><path d="M348.128 68.273v426.641c-28.588 11.034-59.653 17.084-92.128 17.084-60.363 0-115.847-20.898-159.618-55.85a258.498 258.498 0 0 1-34.722-33.51C23.219 377.865.001 319.633.001 255.999V68.273c0-9.822 7.962-17.795 17.795-17.795h312.538c9.582 0 17.408 7.586 17.774 17.074.02.241.02.481.02.721z" style="" fill="#34abe0" data-original="#34abe0" class=""></path><circle cx="122.064" cy="176.274" r="70.834" style="" fill="#ffd15c" data-original="#ffd15c"></circle><path d="M175.344 222.923c-12.974 14.817-32.034 24.168-53.276 24.168s-40.302-9.352-53.276-24.168c13.145-14.26 31.972-23.224 52.889-23.332.139.016.263.016.402.016.124 0 .263 0 .387-.016 20.918.107 39.729 9.072 52.874 23.332z" style="" fill="#ff525d" data-original="#ff525d"></path><path d="M122.083 139.411c19.189 0 34.744 15.554 34.744 34.744 0 19.02-15.279 34.448-34.215 34.722H121.533c-18.936-.275-34.194-15.724-34.194-34.722.001-19.19 15.555-34.744 34.744-34.744z" style="" fill="#f2f2f2" data-original="#f2f2f2"></path><path d="M223.492 132.252h88.252v17.031h-88.252zM223.492 172.721h88.252v17.031h-88.252zM223.492 213.19h88.252v17.031h-88.252zM42.72 287.074h269.018v17.031H42.72zM42.72 324.659h227.223v17.031H42.72z" style="" fill="#5c5e70" data-original="#5c5e70"></path></g></svg>