<svg xmlns="http://www.w3.org/2000/svg" version="1.1"  width="512" height="512" x="0" y="0" viewBox="0 0 512.013 512.013" style="enable-background:new 0 0 512 512" xml:space="preserve" class=""><g><path fill="#ffddce" d="m383.836 464.426 8.283-4.574c67.552-37.301 112.378-105.5 119.827-182.306.815-8.401-5.964-15.593-14.399-15.276l-.384.014c-8.602.323-15.876 6.263-17.894 14.55l-8.278 33.992a119.188 119.188 0 0 1-63.452 78.871c-13.133 6.421-28.008-4.758-25.494-19.158l6.534-37.427c1.232-7.058-3.389-13.812-10.415-15.218a13.206 13.206 0 0 0-13.714 5.828l-47.352 73.968.799 20.812 45.858 45.858z" data-original="#ffddce"></path><path fill="#ffcbbe" d="m374.365 319.948-6.534 37.428c-1.811 10.373 5.402 19.073 14.487 20.728-.603-2.352-.736-4.903-.271-7.566l6.534-37.427c1.232-7.058-3.389-13.812-10.415-15.219a13.208 13.208 0 0 0-3.614-.21 13.53 13.53 0 0 1-.187 2.266zM497.758 262.273c.037.694.042 1.395-.028 2.111-7.449 76.806-52.275 145.005-119.827 182.306l-8.283 4.574-19.024-.064 13.159 13.159 20.081.067 8.283-4.574c67.552-37.301 112.378-105.5 119.827-182.306.808-8.33-5.853-15.462-14.188-15.273z" data-original="#ffcbbe"></path><path fill="#80b4fb" d="m360.964 510.976 29.213-29.213a7.776 7.776 0 0 0 0-10.996l-78.082-78.082a7.776 7.776 0 0 0-10.996 0l-29.213 29.213a2.071 2.071 0 0 0 0 2.931l86.146 86.146c.81.811 2.123.811 2.932.001z" data-original="#80b4fb"></path><path fill="#61a2f9" d="m390.177 470.767-78.082-78.082a7.776 7.776 0 0 0-10.996 0l-6.149 6.149 70.322 70.322a7.776 7.776 0 0 1 0 10.996l-19.032 19.031 11.792 11.792c.81.81 2.122.81 2.931 0l29.213-29.213a7.772 7.772 0 0 0 .001-10.995z" data-original="#61a2f9"></path><path fill="#ffddce" d="m128.177 464.426-8.283-4.574C52.342 422.551 7.515 354.352.067 277.546c-.815-8.401 5.964-15.593 14.399-15.276l.383.014c8.602.323 15.876 6.263 17.894 14.55l8.278 33.992a119.188 119.188 0 0 0 63.452 78.871c13.133 6.421 28.008-4.758 25.494-19.158l-6.534-37.427c-1.232-7.058 3.389-13.812 10.415-15.218a13.206 13.206 0 0 1 13.714 5.828l47.352 73.968-.799 20.812-45.858 45.858z" data-original="#ffddce"></path><path fill="#ffcbbe" d="m1.333 274.663.384.014c8.602.323 15.876 6.263 17.894 14.55l8.278 33.992a119.188 119.188 0 0 0 63.452 78.871c10.506 5.136 22.117-.994 25.058-11.022-3.778.899-7.932.582-11.926-1.371a119.183 119.183 0 0 1-63.452-78.871l-8.278-33.992c-2.018-8.287-9.292-14.227-17.894-14.55l-.384-.014C7.009 261.99.856 267.581.09 274.685c.411-.021.823-.038 1.243-.022zM147.562 323.72a13.203 13.203 0 0 0-13.714-5.828c-5.993 1.2-10.223 6.294-10.576 12.145a13.195 13.195 0 0 1 11.157 6.077l47.352 73.968-.799 20.812-33.467 33.467.741-.003 45.858-45.858.799-20.812z" data-original="#ffcbbe"></path><path fill="#80b4fb" d="m151.048 510.976-29.213-29.213a7.776 7.776 0 0 1 0-10.996l78.082-78.082a7.776 7.776 0 0 1 10.996 0l29.213 29.213c.81.809.81 2.122 0 2.931l-86.146 86.146a2.072 2.072 0 0 1-2.932.001z" data-original="#80b4fb"></path><path fill="#61a2f9" d="m127.509 487.436 70.798-70.798a7.776 7.776 0 0 1 10.996 0l19.508 19.508 11.316-11.316a2.073 2.073 0 0 0 0-2.931l-29.213-29.213a7.776 7.776 0 0 0-10.996 0l-78.082 78.082a7.776 7.776 0 0 0 0 10.996z" data-original="#61a2f9"></path><path fill="#80b4fb" d="m342.327 69.234 10.275 5.696a8.261 8.261 0 0 1 4.256 7.226v26.883c0 3.003-1.63 5.77-4.256 7.226l-10.275 5.696a8.27 8.27 0 0 0-3.15 3.095l-16.074 27.84a8.259 8.259 0 0 0-1.106 4.275l.205 11.746a8.262 8.262 0 0 1-4.13 7.299l-23.281 13.442a8.26 8.26 0 0 1-8.386-.073l-10.07-6.051a8.263 8.263 0 0 0-4.255-1.18h-32.147c-1.499 0-2.97.408-4.255 1.18l-10.07 6.051a8.26 8.26 0 0 1-8.386.073l-23.281-13.442a8.263 8.263 0 0 1-4.13-7.299l.205-11.746a8.259 8.259 0 0 0-1.106-4.275l-16.074-27.84a8.264 8.264 0 0 0-3.15-3.095l-10.275-5.696a8.261 8.261 0 0 1-4.256-7.226V82.156c0-3.003 1.63-5.77 4.256-7.226l10.275-5.696a8.27 8.27 0 0 0 3.15-3.095l16.074-27.84a8.259 8.259 0 0 0 1.106-4.275l-.205-11.746a8.262 8.262 0 0 1 4.13-7.299l23.281-13.442a8.26 8.26 0 0 1 8.386.073l10.07 6.051a8.263 8.263 0 0 0 4.255 1.18h32.147c1.499 0 2.97-.408 4.255-1.18l10.07-6.051a8.26 8.26 0 0 1 8.386-.073l23.281 13.442a8.263 8.263 0 0 1 4.13 7.299l-.205 11.746a8.259 8.259 0 0 0 1.106 4.275l16.074 27.84a8.27 8.27 0 0 0 3.15 3.095zm-86.321-12.638c-21.54 0-39.002 17.462-39.002 39.002s17.462 39.002 39.002 39.002 39.002-17.462 39.002-39.002-17.462-39.002-39.002-39.002z" data-original="#80b4fb"></path><path fill="#61a2f9" d="m352.602 74.93-10.275-5.696a8.261 8.261 0 0 1-3.149-3.095l-16.074-27.84a8.259 8.259 0 0 1-1.106-4.275l.205-11.746a8.26 8.26 0 0 0-4.13-7.299L294.792 1.536a8.26 8.26 0 0 0-8.386.073l-8.573 5.151 14.233 8.218a8.264 8.264 0 0 1 4.13 7.299l-.205 11.746a8.259 8.259 0 0 0 1.106 4.275l16.074 27.84a8.264 8.264 0 0 0 3.15 3.095l10.275 5.696a8.261 8.261 0 0 1 4.256 7.226v26.883c0 3.003-1.63 5.77-4.256 7.226l-10.275 5.696a8.27 8.27 0 0 0-3.15 3.095l-16.074 27.84a8.259 8.259 0 0 0-1.106 4.275l.205 11.746a8.262 8.262 0 0 1-4.13 7.299l-14.233 8.218 8.573 5.151a8.26 8.26 0 0 0 8.386.073l23.281-13.442a8.264 8.264 0 0 0 4.13-7.299l-.205-11.746a8.259 8.259 0 0 1 1.106-4.275l16.074-27.84a8.268 8.268 0 0 1 3.149-3.095l10.275-5.696a8.262 8.262 0 0 0 4.257-7.226V82.156c0-3.003-1.63-5.77-4.257-7.226z" data-original="#61a2f9"></path><path fill="#80b4fb" d="m456.427 194.27 7.124 3.949a5.73 5.73 0 0 1 2.951 5.01v18.64a5.728 5.728 0 0 1-2.951 5.01l-7.124 3.949a5.734 5.734 0 0 0-2.184 2.146l-11.145 19.303c-.52.9-.785 1.925-.767 2.964l.142 8.144a5.73 5.73 0 0 1-2.863 5.061l-16.142 9.32a5.728 5.728 0 0 1-5.815-.051l-6.982-4.195a5.732 5.732 0 0 0-2.95-.818h-22.29a5.732 5.732 0 0 0-2.95.818l-6.982 4.195a5.73 5.73 0 0 1-5.815.051l-16.142-9.32a5.727 5.727 0 0 1-2.863-5.061l.142-8.144a5.727 5.727 0 0 0-.767-2.964l-11.145-19.303a5.734 5.734 0 0 0-2.184-2.146l-7.124-3.949a5.73 5.73 0 0 1-2.951-5.01v-18.64a5.728 5.728 0 0 1 2.951-5.01l7.124-3.949a5.734 5.734 0 0 0 2.184-2.146l11.145-19.303c.52-.9.785-1.925.767-2.964l-.142-8.144a5.73 5.73 0 0 1 2.863-5.061l16.142-9.32a5.728 5.728 0 0 1 5.815.051l6.982 4.195a5.732 5.732 0 0 0 2.95.818h22.29a5.732 5.732 0 0 0 2.95-.818l6.982-4.195a5.73 5.73 0 0 1 5.815-.051l16.142 9.32a5.727 5.727 0 0 1 2.863 5.061l-.142 8.144a5.727 5.727 0 0 0 .767 2.964l11.145 19.303c.52.9 1.275 1.642 2.184 2.146zm-59.852-8.763c-14.935 0-27.042 12.107-27.042 27.042s12.107 27.042 27.042 27.042 27.042-12.107 27.042-27.042-12.107-27.042-27.042-27.042z" data-original="#80b4fb"></path><path fill="#61a2f9" d="m463.551 198.219-7.124-3.949a5.734 5.734 0 0 1-2.184-2.146l-11.145-19.303a5.727 5.727 0 0 1-.767-2.964l.142-8.144a5.73 5.73 0 0 0-2.863-5.061l-16.142-9.32a5.728 5.728 0 0 0-5.815.051l-5.944 3.571 9.869 5.698a5.727 5.727 0 0 1 2.863 5.061l-.142 8.144a5.727 5.727 0 0 0 .767 2.964l11.145 19.303c.52.9 1.275 1.642 2.184 2.146l7.124 3.949a5.73 5.73 0 0 1 2.951 5.01v18.64a5.728 5.728 0 0 1-2.951 5.01l-7.124 3.949a5.734 5.734 0 0 0-2.184 2.146l-11.145 19.303c-.52.9-.785 1.925-.767 2.964l.142 8.144a5.73 5.73 0 0 1-2.863 5.061l-9.869 5.698 5.944 3.571a5.728 5.728 0 0 0 5.815.051l16.142-9.32a5.727 5.727 0 0 0 2.863-5.061l-.142-8.144a5.727 5.727 0 0 1 .767-2.964l11.145-19.303a5.727 5.727 0 0 1 2.184-2.146l7.124-3.949a5.73 5.73 0 0 0 2.951-5.01v-18.64c0-2.082-1.13-4-2.951-5.01z" data-original="#61a2f9"></path><path fill="#80b4fb" d="m175.288 194.27 7.124 3.949a5.73 5.73 0 0 1 2.951 5.01v18.64a5.728 5.728 0 0 1-2.951 5.01l-7.124 3.949a5.734 5.734 0 0 0-2.184 2.146l-11.145 19.303c-.52.9-.785 1.925-.767 2.964l.142 8.144a5.73 5.73 0 0 1-2.863 5.061l-16.142 9.32a5.728 5.728 0 0 1-5.815-.051l-6.982-4.195a5.732 5.732 0 0 0-2.95-.818h-22.29a5.732 5.732 0 0 0-2.95.818l-6.982 4.195a5.73 5.73 0 0 1-5.815.051l-16.142-9.32a5.727 5.727 0 0 1-2.863-5.061l.142-8.144a5.727 5.727 0 0 0-.767-2.964L57.77 232.975a5.734 5.734 0 0 0-2.184-2.146l-7.124-3.949a5.73 5.73 0 0 1-2.951-5.01v-18.64a5.728 5.728 0 0 1 2.951-5.01l7.124-3.949a5.734 5.734 0 0 0 2.184-2.146l11.145-19.303c.52-.9.785-1.925.767-2.964l-.142-8.144a5.73 5.73 0 0 1 2.863-5.061l16.142-9.32a5.728 5.728 0 0 1 5.815.051l6.982 4.195a5.732 5.732 0 0 0 2.95.818h22.29a5.732 5.732 0 0 0 2.95-.818l6.982-4.195a5.73 5.73 0 0 1 5.815-.051l16.142 9.32a5.727 5.727 0 0 1 2.863 5.061l-.142 8.144a5.727 5.727 0 0 0 .767 2.964l11.145 19.303a5.738 5.738 0 0 0 2.184 2.145zm-59.851-8.763c-14.935 0-27.042 12.107-27.042 27.042s12.107 27.042 27.042 27.042 27.042-12.107 27.042-27.042-12.107-27.042-27.042-27.042z" data-original="#80b4fb"></path><path fill="#61a2f9" d="m182.413 198.219-7.124-3.949a5.734 5.734 0 0 1-2.184-2.146L161.96 172.82a5.727 5.727 0 0 1-.767-2.964l.142-8.144a5.73 5.73 0 0 0-2.863-5.061l-16.142-9.32a5.728 5.728 0 0 0-5.815.051l-5.944 3.571 9.869 5.698a5.727 5.727 0 0 1 2.863 5.061l-.142 8.144a5.727 5.727 0 0 0 .767 2.964l11.145 19.303c.52.9 1.275 1.642 2.184 2.146l7.124 3.949a5.73 5.73 0 0 1 2.951 5.01v18.64a5.728 5.728 0 0 1-2.951 5.01l-7.124 3.949a5.734 5.734 0 0 0-2.184 2.146l-11.145 19.303c-.52.9-.785 1.925-.767 2.964l.142 8.144a5.73 5.73 0 0 1-2.863 5.061l-9.869 5.698 5.944 3.571a5.728 5.728 0 0 0 5.815.051l16.142-9.32a5.727 5.727 0 0 0 2.863-5.061l-.142-8.144a5.727 5.727 0 0 1 .767-2.964l11.145-19.303a5.727 5.727 0 0 1 2.184-2.146l7.124-3.949a5.73 5.73 0 0 0 2.951-5.01v-18.64a5.729 5.729 0 0 0-2.951-5.009z" data-original="#61a2f9"></path></g></svg>